<svg xmlns="http://www.w3.org/2000/svg" viewBox="0 0 476.09 283.48"><defs><style>.cls-1{fill:#134399;}.cls-2{fill:gray;}</style></defs><title>hct_no_bg_svg</title><g id="Layer_2" data-name="Layer 2"><g id="Layer_1-2" data-name="Layer 1"><path d="M29,65.11V91.25a26,26,0,0,1,8.08-5.18,24.9,24.9,0,0,1,9.29-1.72,21.48,21.48,0,0,1,13,3.87q5.36,3.87,6.53,8.94T67,115.64V181.3H38v-67q0-8.33-.82-10.69a3.49,3.49,0,0,0-3.7-2.37,3.54,3.54,0,0,0-3.59,2.44Q29,106.1,29,113.34v68H0V65.11Z"/><path d="M102.91,123H75.71v-6.38q0-11.05,2.55-17T88.48,88.94q7.68-4.59,20-4.59,14.71,0,22.18,5.2t9,12.77q1.5,7.58,1.5,31.18v47.8h-28.2v-8.49A17.67,17.67,0,0,1,96,183a24.47,24.47,0,0,1-14-4.27q-6.34-4.27-6.35-18.7v-7.82q0-10.69,3.37-14.56t16.72-9q14.28-5.59,15.29-7.53t1-7.89q0-7.47-1.11-9.73a3.81,3.81,0,0,0-3.7-2.26c-2,0-3.18.63-3.65,1.9s-.72,4.56-.72,9.87ZM112.09,136q-7,5.08-8.07,8.54a33.91,33.91,0,0,0-1.11,9.9q0,7.39,1,9.54t3.84,2.16c1.81,0,3-.57,3.55-1.69s.82-4.08.82-8.86Z"/><path d="M215.14,122H187.8V111q0-5.75-.93-7.78a3.44,3.44,0,0,0-3.45-2.05,3.38,3.38,0,0,0-3.37,1.79q-.86,1.8-.86,8V156q0,5.1,1.29,7.65a4.11,4.11,0,0,0,3.81,2.55,3.92,3.92,0,0,0,4-2.66q1-2.66,1-10.05V142.11h25.83a148.53,148.53,0,0,1-.82,17.12,27.5,27.5,0,0,1-4.81,11.7,25.68,25.68,0,0,1-10.58,9q-6.54,3-16.15,3.05-12.27,0-19.45-4.2a23.1,23.1,0,0,1-10.15-11.77q-3-7.56-3-21.49V118.5q0-12.12,2.44-18.3t10.4-11q8-4.84,19.38-4.84t19.38,4.8q8,4.81,10.69,12.13T215.14,122"/><polygon points="286.19 86.07 274.42 123.99 289.7 181.3 261.82 181.3 252.78 139.79 252.75 181.3 223.75 181.3 223.75 65.11 252.75 65.11 252.78 113.89 261.82 86.07 286.19 86.07"/><path class="cls-1" d="M404.4,115.71H374.19V95.51q0-8.81-1-11c-.64-1.45-2.07-2.18-4.27-2.18q-3.74,0-4.74,2.65t-1,11.48v54q0,8.46,1,11.05c.67,1.72,2.18,2.59,4.53,2.59s3.71-.87,4.41-2.59,1-5.78,1-12.16V134.72H404.4v4.53q0,18-2.55,25.59t-11.26,13.22q-8.73,5.69-21.5,5.68-13.27,0-21.88-4.81a23.37,23.37,0,0,1-11.41-13.31Q333,157.11,333,140V106.09a149.94,149.94,0,0,1,.86-18.84A26.33,26.33,0,0,1,339,75.16,28.62,28.62,0,0,1,350.83,66a42.86,42.86,0,0,1,17.4-3.33q13.35,0,22,5.15T401.67,80.7q2.73,7.69,2.73,24Z"/><polygon class="cls-1" points="476.09 65.11 476.09 88.37 458.15 88.37 458.15 181.3 427.94 181.3 427.94 88.37 410.07 88.37 410.07 65.11 476.09 65.11"/><polygon class="cls-2" points="307.43 283.48 298.48 283.48 298.48 0 331.3 0 307.43 283.48"/></g></g></svg>